<svg xmlns="http://www.w3.org/2000/svg" width="50" height="50" viewBox="0 0 50 50">
  <g id="Group_141511" data-name="Group 141511" transform="translate(-0.438)">
    <rect id="Rectangle_9336" data-name="Rectangle 9336" width="50" height="50" rx="25" transform="translate(0.438)" fill="#fff"/>
    <g id="Group_141506" data-name="Group 141506" transform="translate(10 17)">
      <path id="Path_370256" data-name="Path 370256" d="M244.321,17.391a3.038,3.038,0,0,0-3.016,3.017v9.177a3.04,3.04,0,0,0,3.016,3.024h20.591a3.041,3.041,0,0,0,3.024-3.024V28.8h1.9a1.916,1.916,0,0,0,1.9-1.9V23.1a1.916,1.916,0,0,0-1.9-1.9h-1.9v-.788a3.04,3.04,0,0,0-3.024-3.017Zm0,1.9h20.591a1.106,1.106,0,0,1,1.122,1.115v9.177a1.107,1.107,0,0,1-1.122,1.122H244.321a1.105,1.105,0,0,1-1.114-1.122V20.408A1.1,1.1,0,0,1,244.321,19.293Zm.788,1.9V28.8h4.914V21.2Zm22.827,1.9h1.9v3.8h-1.9Z" transform="translate(-241.305 -17.391)" fill="#001c55"/>
      <rect id="Rectangle_9337" data-name="Rectangle 9337" width="14.674" height="7.609" transform="translate(3.804 3.805)" fill="#001c55"/>
    </g>
  </g>
</svg>
